<svg width="400" height="400" viewBox="0 0 904 906" fill="none" xmlns="http://www.w3.org/2000/svg">
<path d="M902 543V363L752 273V183L752 93L602 3M902 543L752 633M902 543L752 453V543V633M2 543V363L152 273L152 183V93L302 3.00001M2 543L152 633M2 543L152 453V543V633M302 3.00001L452 93M302 3.00001V183L452 93M602 3L452 93M602 3V183L452 93M752 633L602 723L752 813M752 633V723V813M752 633L602 543M452 93V183V273M152 633L302 723L152 813M152 633V723V813M152 633L302 543M302 363V543M302 363L452 273M302 363L452 453M302 543L452 633M452 273L602 363M602 363V543M602 363L452 453M602 543L452 633M452 633V543V453M752 813L602 903L452 813L302 903L152 813" stroke="black" stroke-width="4"/>
<path fill-rule="evenodd" clip-rule="evenodd" d="M452 93L602 183V3L752 93L752 183V273L902 363V543L752 453V543V633L602 543V363L452 273V183V93ZM302 543L452 633V543V453L302 363V543Z" fill="#333" fill-opacity=".5"/>
</svg>
